<svg id="e5OK6gXq0Hj1" xmlns="http://www.w3.org/2000/svg" xmlns:xlink="http://www.w3.org/1999/xlink" viewBox="0 0 472 158" shape-rendering="geometricPrecision" text-rendering="geometricPrecision" project-id="62e30408a4174b8aa7ed0ba18bd2b704" export-id="354eb67bdeaa4c60849f732ff538a959" cached="false"><rect width="22.1453" height="20.7141" rx="2.63433" ry="2.63433" transform="translate(203.103 41.7015)" fill="#465fff" stroke="#465fff" stroke-width="0.752667"/><rect width="22.1453" height="20.7141" rx="2.63433" ry="2.63433" transform="translate(246.752 41.7015)" fill="#465fff" stroke="#465fff" stroke-width="0.752667"/><rect width="22.1453" height="20.7141" rx="2.63433" ry="2.63433" transform="translate(258.201 98.2308)" fill="#465fff" stroke="#465fff" stroke-width="0.752667"/><rect width="22.1453" height="20.7141" rx="2.63433" ry="2.63433" transform="translate(191.654 98.2308)" fill="#465fff" stroke="#465fff" stroke-width="0.752667"/><rect width="57.5655" height="20.7141" rx="2.63433" ry="2.63433" transform="translate(207.396 82.847)" fill="#465fff" stroke="#465fff" stroke-width="0.752667"/><rect width="166.462" height="130.311" rx="28" ry="28" transform="translate(152.769 15.167)" fill="none" stroke="#465fff" stroke-width="24"/><rect width="32.6255" height="77.5957" rx="6.26271" ry="6.26271" transform="translate(.040527 0.522461)" fill="#465fff"/><rect width="32.6255" height="77.5957" rx="6.26271" ry="6.26271" transform="translate(.040527 0.522461)" fill="none" stroke="#465fff"/><rect width="32.6255" height="154.31" rx="6.26271" ry="6.26271" transform="translate(75.8726 3.16797)" fill="#465fff" stroke="#fff"/><rect width="32.6255" height="154.31" rx="6.26271" ry="6.26271" transform="translate(75.8726 3.16797)" fill="#465fff" stroke="#fff"/><rect width="32.6255" height="77.5957" rx="6.26271" ry="6.26271" transform="matrix(0-1 1 0 16.7939 91.3441)" fill="#465fff"/><rect width="32.6255" height="77.5957" rx="6.26271" ry="6.26271" transform="matrix(0-1 1 0 16.7939 91.3441)" fill="none" stroke="#465fff"/><rect width="32.6255" height="77.5957" rx="6.26271" ry="6.26271" transform="matrix(-.002005 0.999998-.999998-.002005 446.496504 3.479128)" fill="#465fff"/><rect width="32.6255" height="77.5957" rx="6.26271" ry="6.26271" transform="matrix(-.002005 0.999998-.999998-.002005 446.561918 3.323549)" fill="none" stroke="#465fff"/><rect width="32.6255" height="154.31" rx="6.26271" ry="6.26271" transform="translate(439.334 3.323549)" fill="#465fff"/><rect width="32.6255" height="154.31" rx="6.26271" ry="6.26271" transform="translate(439.334 3.16797)" fill="none" stroke="#465fff"/><rect width="32.6255" height="77.5957" rx="6.26271" ry="6.26271" transform="matrix(0-1 1 0 383.093784 99.15975)" fill="#465fff"/><rect width="32.6255" height="77.5957" rx="6.26271" ry="6.26271" transform="matrix(0-1 1 0 383.093784 99.15975)" fill="none" stroke="#465fff"/><rect width="32.6255" height="77.5957" rx="6.26271" ry="6.26271" transform="matrix(-.002005 0.999998-.999998-.002005 446.627332 124.852535)" fill="#465fff"/><rect width="32.6255" height="77.5957" rx="6.26271" ry="6.26271" transform="matrix(-.002005 0.999998-.999998-.002005 446.692746 124.696956)" fill="none" stroke="#465fff"/></svg>
