<?xml version="1.0" encoding="UTF-8"?>
<svg id="Capa_1" data-name="Capa 1" xmlns="http://www.w3.org/2000/svg" version="1.1" viewBox="0 0 231 48">
  <defs>
    <style>
      .cls-1, .cls-2 {
        fill: #0d99f0;
      }

      .cls-1, .cls-3 {
        stroke-width: 0px;
      }

      .cls-2 {
        stroke: #0d99f0;
        stroke-miterlimit: 10;
        stroke-width: 1.1px;
      }

      .cls-3 {
        fill: #fcd663;
      }
    </style>
  </defs>
  <g>
    <path class="cls-2" d="M195.6,21.2c.2.4.3.4.3.5.8,5,.7,5.1-4.3,5.1-3.6,0-7.2,0-10.8,0-1.3,0-1.9.4-1.8,1.8,0,.5,0,1,0,1.4,0,2.1.8,2.8,2.9,2.8,3.9,0,7.9,0,11.8,0,.6,0,1.3,0,2.1,0v5.4c-.8,0-1.4,0-2.1,0-4.8,0-9.6,0-14.3,0-.8,0-1.6,0-2.3-.2-4.4-.6-5.9-2.3-5.9-6.8,0-4.7.2-9.3,0-14-.3-5.9,3.2-7.2,7.1-7.3,5.3-.2,10.6,0,16,0,1.2,0,1.7.4,1.7,1.7,0,4.6.2,3.8-3.6,3.9-3.4,0-6.8,0-10.2,0-2.7,0-4.3,2.9-2.9,5.2.2.4,1.1.5,1.7.6,4.2,0,8.4,0,12.6,0,.7,0,1.4,0,2,0ZM195.1,33.4c-1.2,0-2.2,0-3.3,0-3.3,0-6.7,0-10,0-2.4,0-3.4-1.1-3.4-3.4,0-.5,0-1.1,0-1.6,0-1.6.6-2.3,2.2-2.2,3.8,0,7.5,0,11.3,0q3.8,0,3.3-3.8s0,0-.2-.3c-.5,0-1.1,0-1.8,0-4.2,0-8.5,0-12.7,0-.6,0-1.6-.3-1.8-.7-1.7-2.9.3-6.2,3.7-6.2,3.8,0,7.7,0,11.5,0,2,0,1.4-1.3,1.5-2.3,0-1.1,0-1.9-1.5-1.9-5.2,0-10.4,0-15.6,0-.7,0-1.3,0-2,.2-2.8.6-4.2,2.3-4.3,5.1,0,5.4,0,10.7,0,16.1,0,2.7,1.2,4.2,3.9,4.8,1.3.3,2.6.4,3.9.4,4.1,0,8.1,0,12.2,0q3.7,0,3.2-4.1Z"/>
    <path class="cls-2" d="M81.2,32.7v5.5c-1.6,0-3.2,0-4.7,0-3.8,0-7.5,0-11.3,0-1.1,0-2.2,0-3.2-.2-4.1-.7-5.4-2.3-5.4-6.4,0-4.7.1-9.4,0-14.1-.2-5.9,3.3-7.2,7-7.3,5.4-.2,10.9,0,16.3-.1,1.1,0,1.4.4,1.5,1.5.2,4,.2,4-3.6,4-3.5,0-6.9,0-10.4.2-.9,0-2.3.5-2.5,1.2-.4,1.2-.2,2.7,0,4,0,.2,1,.5,1.5.5,4.4,0,8.7,0,13.1,0,1.5,0,2,.5,1.9,1.9-.1,4.3.3,3.5-3.5,3.6-3.9,0-7.8,0-11.7,0-1.4,0-1.8.5-1.7,1.8,0,.5,0,1,0,1.4,0,2,.7,2.7,2.7,2.7,3.9,0,7.9,0,11.8,0,.6,0,1.3,0,2.1,0ZM57.2,24.2h0c0,2.7,0,5.5,0,8.2,0,2.2,1.1,3.6,3.1,4.3,1,.3,2.1.6,3.1.6,5.3,0,10.5,0,15.8,0,.4,0,1-.2,1.2-.5.9-1.8,0-3.5-2-3.5-3.5,0-7.1,0-10.6,0-3.2,0-4-.9-4.1-4,0-.4,0-.7,0-1.1,0-1.6.6-2.2,2.2-2.2,4.2,0,8.5,0,12.7,0,1.7,0,1.9-.7,1.9-2.1,0-1.4-.1-2.2-1.9-2.1-4.2.1-8.5,0-12.7,0-.7,0-1.7-.3-2-.7-1.7-2.8.3-6.2,3.5-6.2,3.6,0,7.2,0,10.8,0,1.7,0,2.4-.2,2.4-2.2,0-2.1-1-2.1-2.5-2.1-3,0-6.1,0-9.2,0-2.4,0-4.8,0-7.2.2-3.1.4-4.6,2.3-4.6,5.4,0,2.6,0,5.3,0,7.9Z"/>
    <path class="cls-2" d="M115.4,24.2c0-2.7,0-5.4,0-8.1,0-3.5,1.7-5.5,5.1-5.8,6-.4,12.1-.4,18.1-.4.5,0,1.3.8,1.4,1.4.5,4,.4,4.1-3.6,4.1-3.4,0-6.8,0-10.2,0-2.6,0-4.2,3-2.8,5.2.2.4,1,.5,1.6.5,4.4,0,8.9,0,13.3,0,1.4,0,1.9.4,1.9,1.8,0,4.6.3,3.7-3.7,3.8-3.8,0-7.7,0-11.5,0-1.3,0-1.9.4-1.7,1.8,0,.5,0,1,0,1.4,0,1.9.8,2.7,2.7,2.7,4.1,0,8.3,0,12.4,0,1.5,0,1.8.5,1.8,1.9,0,3.7,0,3.7-3.7,3.7-4.2,0-8.5,0-12.7,0-.9,0-1.8,0-2.7-.2-4.2-.6-5.6-2.3-5.7-6.6,0-2.4,0-4.8,0-7.2,0,0,0,0,0,0ZM139.2,26.1c0-.6.2-1,.2-1.3,0-3.4.3-2.8-2.9-2.9-3.9,0-7.9,0-11.8,0-.7,0-1.8-.5-2-1-1.4-3.4.4-6,4.1-6,3.8,0,7.5,0,11.3,0,1.5,0,1.4-1,1.3-2,0-.9.6-2.2-1.2-2.2-5.6,0-11.1,0-16.7,0-3.7.1-5.4,2.2-5.5,5.9,0,4.9,0,9.8,0,14.7,0,3.9,1.3,5.6,5.2,5.8,5.7.3,11.4.2,17,.2.4,0,1-.5,1-.8.1-1,0-2.1,0-3.2-1,0-1.6,0-2.3,0-3.6,0-7.2,0-10.8,0-2.8,0-3.8-1-3.8-3.8,0-.3,0-.6,0-.9,0-2.3.3-2.6,2.6-2.6,3.6,0,7.3,0,10.9,0,1.1,0,2.1,0,3.2,0Z"/>
    <path class="cls-2" d="M86.2,38c-.1-.2-.2-.3-.2-.3q-.6-5,4.4-5c2.9,0,5.9,0,8.8,0,2.8,0,4.2-2.1,3-4.7-.3-.6-1.4-1.1-2.1-1.2-2.4-.2-4.9,0-7.4-.2-4-.4-7.2-2-6.8-7.2,0-.8,0-1.6,0-2.3,0-4.9,1.8-6.9,6.7-7.1,5.3-.2,10.6,0,16,0,1.1,0,1.4.5,1.5,1.5.3,3.9.2,4-3.7,4-3.2,0-6.5,0-9.7,0-2.4,0-3.1.7-3,2.8,0,2.1.8,2.8,3.2,2.9,2.2,0,4.4,0,6.6,0,4.5,0,6.6,2.2,6.6,6.6,0,1.4,0,2.7,0,4.1,0,3.1-1.5,5-4.6,5.8-.4.1-.8.3-1.2.3-6,0-12.1,0-18.1,0ZM109.1,10.8c-6.1,0-12.2-.1-18.2,0-2.6,0-4.2,2.2-4.3,4.9,0,1.3,0,2.6,0,3.9,0,4.1,1.8,6.1,6.1,6.3,2.5.1,5,0,7.5.2.9,0,2,.6,2.5,1.3,1.6,2.5,0,5.6-2.9,5.8-2,.2-3.9,0-5.9,0-2.4,0-4.7,0-7.1,0v4.1c5.1,0,10,0,15,0,1.1,0,2.2,0,3.2-.2,3.1-.6,4.5-2.4,4.5-5.5,0-1.7,0-3.5,0-5.2,0-1.8-.8-3.2-2.4-3.8-1.2-.5-2.5-.7-3.8-.8-2.4-.1-4.8,0-7.2-.2-1.4,0-2.6-.7-2.9-2.2-.6-3.1.5-4.6,3.7-4.7,3.2,0,6.3,0,9.5,0,3.4,0,3.5,0,3.1-3.5,0-.2-.1-.3-.2-.6Z"/>
    <path class="cls-2" d="M225.5,32.6c0,1.6,0,3.1,0,4.5,0,.4-.7,1-1.1,1-5.6,0-11.2.2-16.9-.1-4.9-.3-6.6-2.4-6.7-7.2,0-6.3,0-12.6,0-19,0-1.5.5-2,2-1.9,1.3.1,2.6,0,3.9,0,1.6,0,2.2.5,2.2,2.2,0,5.9,0,11.8,0,17.7,0,2.5.4,2.9,2.9,2.9,4.5,0,9,0,13.7,0ZM201.9,10.8c0,7.7-.1,15.2,0,22.8,0,2,1.9,2.9,3.7,3.4,1.1.3,2.4.4,3.5.4,4.7,0,9.3,0,14,0,2,0,1.6-1.2,1.7-2.3.1-1.4-.3-1.9-1.8-1.8-3.8.1-7.6,0-11.5,0-2.6,0-3.4-.8-3.4-3.4,0-5.7,0-11.4,0-17.2,0-.6,0-1.3,0-2h-6.2Z"/>
    <path class="cls-2" d="M159.2,38.2c-2.4,0-4.5,0-6.6,0-1.3,0-1.2-.9-1.2-1.7,0-4.1,0-8.2,0-12.3,0-2.3,0-4.5,0-6.8,0-1.4-.5-2-1.9-2-1.7,0-3.3,0-5,0-1.1,0-1.4-.4-1.5-1.5-.2-3.7-.2-3.8,3.5-3.8,6.2,0,12.3,0,18.5-.2,1.7,0,2.4.4,2.4,2.3-.1,3.8.1,3.2-3.3,3.2-5.1,0-5.1,0-5.1,5.2,0,5,0,10,0,15,0,.8,0,1.5,0,2.6ZM166.6,10.7c-7.2,0-14.4,0-21.7,0-1.7,0-.9,1.5-1,2.4,0,.7-.3,1.8,1.1,1.8,1.4,0,2.9,0,4.3,0,2.5,0,2.8.3,2.8,2.7,0,5.1,0,10.3,0,15.4,0,4.5,0,4.5,4.5,4.5,1.5,0,1.9-.5,1.9-1.9,0-5.2,0-10.5,0-15.7,0-5.3-.7-5,5-5q3.5,0,3.3-3.5c0-.1,0-.2-.2-.6Z"/>
  </g>
  <g>
    <path class="cls-1" d="M22.9,41.6c-9.7,0-17.6-7.9-17.6-17.6S13.2,6.4,22.9,6.4s17.6,7.9,17.6,17.6-7.9,17.6-17.6,17.6ZM22.9,8.6c-8.5,0-15.4,6.9-15.4,15.4s6.9,15.4,15.4,15.4,15.4-6.9,15.4-15.4-6.9-15.4-15.4-15.4Z"/>
    <path class="cls-3" d="M36.6,13.1s8.8-3.8,11.1-2.5-.9,7.9-17.4,18.8C13.9,40.3-4.9,44.4,1.2,37.5s5.8-6.1,5.8-6.1l.6.8s-4.3,4.9-3.4,5.8,3.5.8,15.7-5.5c12.2-6.3,21.5-13.5,24-16.6s.8-3.4-.8-3.3-5.8,1.6-5.8,1.6l-.7-1.2Z"/>
  </g>
</svg>