<?xml version="1.0" encoding="UTF-8"?>
<svg id="Capa_1" data-name="Capa 1" xmlns="http://www.w3.org/2000/svg" version="1.1" viewBox="0 0 32 32">
  <defs>
    <style>
      .cls-1 {
        fill: #0d99f0;
      }

      .cls-1, .cls-2 {
        stroke-width: 0px;
      }

      .cls-2 {
        fill: #fcd663;
      }
    </style>
  </defs>
  <path class="cls-1" d="M15.1,27.5c-6.3,0-11.5-5.2-11.5-11.5S8.8,4.5,15.1,4.5s11.5,5.2,11.5,11.5-5.2,11.5-11.5,11.5ZM15.1,5.9c-5.6,0-10.1,4.5-10.1,10.1s4.5,10.1,10.1,10.1,10.1-4.5,10.1-10.1-4.5-10.1-10.1-10.1Z"/>
  <path class="cls-2" d="M24.1,8.8s5.8-2.5,7.3-1.6-.6,5.2-11.4,12.3C9.2,26.7-3.1,29.4.9,24.8c4-4.5,3.8-4,3.8-4l.4.5s-2.8,3.2-2.2,3.8,2.3.5,10.3-3.6c8-4.1,14.1-8.9,15.7-10.8s.5-2.2-.5-2.2-3.8,1.1-3.8,1.1l-.4-.8Z"/>
</svg>